<?xml version="1.0" encoding="UTF-8" standalone="no"?>
<svg
   viewBox="0 0 36 36"
   version="1.1"
   id="svg72"
   sodipodi:docname="2702-rot.svg"
   inkscape:version="1.2.2 (b0a8486541, 2022-12-01)"
   xmlns:inkscape="http://www.inkscape.org/namespaces/inkscape"
   xmlns:sodipodi="http://sodipodi.sourceforge.net/DTD/sodipodi-0.dtd"
   xmlns="http://www.w3.org/2000/svg"
   xmlns:svg="http://www.w3.org/2000/svg">
  <defs
     id="defs76" />
  <sodipodi:namedview
     id="namedview74"
     pagecolor="#ffffff"
     bordercolor="#000000"
     borderopacity="0.25"
     inkscape:showpageshadow="2"
     inkscape:pageopacity="0.0"
     inkscape:pagecheckerboard="0"
     inkscape:deskcolor="#d1d1d1"
     showgrid="false"
     inkscape:zoom="23.472222"
     inkscape:cx="9.564497"
     inkscape:cy="18.894675"
     inkscape:window-width="1920"
     inkscape:window-height="1018"
     inkscape:window-x="0"
     inkscape:window-y="0"
     inkscape:window-maximized="1"
     inkscape:current-layer="svg72" />
  <path
     fill="#dd2e44"
     d="m 19.193385,24.325193 c 0.92,2.047 2.003,4.066 3.026,6.26 0.028,0.068 0.051,0.138 0.082,0.206 0.064,0.142 0.137,0.277 0.208,0.413 l 0.052,0.111 0.002,-0.003 c 1.638,2.99 5.093,4.362 7.976,3.067 3.046,-1.367 4.296,-5.192 2.79,-8.542 -1.505,-3.351 -5.194,-4.957 -8.24,-3.589 -0.106,0.047 -0.205,0.105 -0.306,0.159 -1.935,-0.438 -1.994,-1.877 -1.994,-1.877 0,0 -4.618,1.521 -3.596,3.795 z m 11.93,2.502 c 0.958,2.133 0.252,4.527 -1.575,5.347 -1.826,0.822 -4.084,-0.242 -5.042,-2.374 -0.958,-2.132 -0.253,-4.526 1.573,-5.346 1.828,-0.821 4.087,0.241 5.044,2.373 z"
     id="path62" />
  <path
     fill="#99aab5"
     d="m 9.0213854,0.13219327 c -1.163,0.657 -2.187,2.47400003 -1.529,3.63800003 L 19.245385,24.441193 c 1.103,-0.496 2.938,-2.313 3.544,-3.912 z"
     id="path64" />
  <path
     fill="#dd2e44"
     d="m 5.4593854,34.380193 c 2.882,1.295 6.3379996,-0.077 7.9759996,-3.067 l 0.003,0.003 0.053,-0.112 c 0.071,-0.135 0.145,-0.27 0.208,-0.412 0.03,-0.068 0.053,-0.137 0.081,-0.206 1.023,-2.194 2.107,-4.213 3.026,-6.26 1.021,-2.274 -3.597,-3.796 -3.597,-3.796 0,0 -0.059,1.439 -1.993,1.877 -0.102,-0.054 -0.2,-0.111 -0.307,-0.159 -3.0449996,-1.368 -6.7329996,0.238 -8.2399996,3.589 -1.505,3.35 -0.255,7.175 2.79,8.543 z m -0.584,-7.553 c 0.959,-2.132 3.216,-3.194 5.044,-2.373 1.8259996,0.82 2.5309996,3.214 1.5719996,5.346 -0.956,2.132 -3.2139996,3.195 -5.0409996,2.374 -1.827,-0.82 -2.532,-3.214 -1.575,-5.347 z"
     id="path66" />
  <path
     fill="#ccd6dd"
     d="m 26.977385,0.13219327 c 1.163,0.657 2.187,2.47400003 1.529,3.63800003 l -11.753,20.6709997 c -1.103,-0.496 -2.938,-2.313 -3.544,-3.912 z"
     id="path68" />
  <path
     fill="#99aab5"
     d="m 16.437385,17.604193 c 0,-0.863 0.701,-1.562 1.562,-1.562 0.863,0 1.562,0.699 1.562,1.562 0,0.863 -0.699,1.562 -1.562,1.562 -0.862,0 -1.562,-0.699 -1.562,-1.562 z"
     id="path70" />
</svg>
