<?xml version="1.0" encoding="UTF-8" standalone="no"?>
<svg
   viewBox="0 0 36 36"
   version="1.1"
   id="svg284"
   sodipodi:docname="2714-green.svg"
   inkscape:version="1.2.2 (b0a8486541, 2022-12-01)"
   xmlns:inkscape="http://www.inkscape.org/namespaces/inkscape"
   xmlns:sodipodi="http://sodipodi.sourceforge.net/DTD/sodipodi-0.dtd"
   xmlns="http://www.w3.org/2000/svg"
   xmlns:svg="http://www.w3.org/2000/svg">
  <defs
     id="defs288" />
  <sodipodi:namedview
     id="namedview286"
     pagecolor="#ffffff"
     bordercolor="#000000"
     borderopacity="0.25"
     inkscape:showpageshadow="2"
     inkscape:pageopacity="0.0"
     inkscape:pagecheckerboard="0"
     inkscape:deskcolor="#d1d1d1"
     showgrid="false"
     inkscape:zoom="23.472222"
     inkscape:cx="17.978698"
     inkscape:cy="18.042604"
     inkscape:window-width="1920"
     inkscape:window-height="1018"
     inkscape:window-x="0"
     inkscape:window-y="0"
     inkscape:window-maximized="1"
     inkscape:current-layer="svg284" />
  <path
     fill="#31373D"
     d="M34.459 1.375c-1.391-.902-3.248-.506-4.149.884L13.5 28.17l-8.198-7.58c-1.217-1.125-3.114-1.051-4.239.166-1.125 1.216-1.051 3.115.166 4.239l10.764 9.952s.309.266.452.359c.504.328 1.07.484 1.63.484.982 0 1.945-.482 2.52-1.368L35.343 5.524c.902-1.39.506-3.248-.884-4.149z"
     id="path282" />
  <path
     style="fill:#00ff00;stroke-width:0.0426035"
     d="M 13.44142,35.699602 C 13.07286,35.620671 12.453169,35.307644 12.164032,35.054348 11.756889,34.697675 1.7211772,25.41968 1.3267107,25.035267 0.79106004,24.513269 0.59255703,24.201823 0.39917743,23.579991 0.26071076,23.134737 0.26113312,22.459873 0.4001633,22.004734 c 0.32533831,-1.065052 1.1531502,-1.865918 2.1773515,-2.106479 0.6210236,-0.145864 1.4409061,-0.05287 1.98718,0.225403 0.4109052,0.209313 0.57263,0.346239 2.3224017,1.966283 4.9859795,4.61632 6.5692155,6.071006 6.6075005,6.071006 0.02332,0 3.833281,-5.847338 8.466572,-12.994083 C 29.821,3.0432531 30.409323,2.1482714 30.74343,1.80691 c 0.300805,-0.3073371 0.422772,-0.3977985 0.762362,-0.5654354 0.885166,-0.43695724 1.751498,-0.43730369 2.640954,-0.00106 0.339237,0.1663843 0.463463,0.2578865 0.76765,0.5654353 0.399936,0.4043554 0.604549,0.7440216 0.772815,1.2829036 0.08291,0.2655356 0.09905,0.4059122 0.09549,0.8307692 -0.005,0.5994414 -0.114604,1.0076245 -0.394716,1.4702098 -0.0921,0.1520947 -4.37507,6.7661215 -9.517714,14.6978375 -8.748327,13.492915 -9.373246,14.444711 -9.707309,14.784927 -0.272197,0.277211 -0.439299,0.406147 -0.703154,0.542557 -0.623139,0.322153 -1.358623,0.425838 -2.018391,0.284544 z"
     id="path428" />
</svg>
