<svg width="51" height="36" xmlns="http://www.w3.org/2000/svg">
 <g id="Layer_1">
  <title>Layer 1</title>
  <g>
   <g id="svg_1">
    <title>Layer 1</title>
    <g>
     <path fill="#00FF00" d="m13.36719,16.59375l-4.60938,0l0,-4.6875c0,-0.77672 -0.61904,-1.40625 -1.38281,-1.40625s-1.38281,0.62953 -1.38281,1.40625l0,4.6875l-4.60938,0c-0.76377,0 -1.38281,0.62953 -1.38281,1.40625s0.61904,1.40625 1.38281,1.40625l4.60938,0l0,4.6875c0,0.77672 0.61904,1.40625 1.38281,1.40625s1.38281,-0.62953 1.38281,-1.40625l0,-4.6875l4.60938,0c0.76377,0 1.38281,-0.62953 1.38281,-1.40625s-0.61904,-1.40625 -1.38281,-1.40625z"/>
    </g>
   </g>
  </g>
  <g>
   <path d="m17,29c0,2.209 1.791,4 4,4l24,0c2.209,0 4,-1.791 4,-4l0,-17c0,-2.209 -1.791,-4 -4,-4l-9,0c-3.562,0 -3,-5 -8.438,-5l-6.562,0c-2.209,0 -4,1.791 -4,4l0,22z" fill="#269"/>
   <path d="m47,10l-6.562,0c-5.438,0 -4.876,5 -8.438,5l-9,0c-2.209,0 -4,1.791 -4,4l0,10c0,0.553 -0.448,1 -1,1s-1,-0.447 -1,-1c0,2.209 1.791,4 4,4l26,0c2.209,0 4,-1.791 4,-4l0,-15c0,-2.209 -1.791,-4 -4,-4z" fill="#55ACEE"/>
  </g>
 </g>

</svg>