<?xml version="1.0" encoding="UTF-8" standalone="no"?>
<!-- Created with Inkscape (http://www.inkscape.org/) -->

<svg
   width="51"
   height="36"
   viewBox="0 0 13.49375 9.5249999"
   version="1.1"
   id="svg536"
   xml:space="preserve"
   inkscape:version="1.2.2 (b0a8486541, 2022-12-01)"
   sodipodi:docname="link-add.svg"
   xmlns:inkscape="http://www.inkscape.org/namespaces/inkscape"
   xmlns:sodipodi="http://sodipodi.sourceforge.net/DTD/sodipodi-0.dtd"
   xmlns="http://www.w3.org/2000/svg"
   xmlns:svg="http://www.w3.org/2000/svg"><sodipodi:namedview
     id="namedview538"
     pagecolor="#ffffff"
     bordercolor="#000000"
     borderopacity="0.25"
     inkscape:showpageshadow="2"
     inkscape:pageopacity="0.0"
     inkscape:pagecheckerboard="0"
     inkscape:deskcolor="#d1d1d1"
     inkscape:document-units="mm"
     showgrid="false"
     inkscape:zoom="3.676183"
     inkscape:cx="176.26979"
     inkscape:cy="95.071437"
     inkscape:window-width="1920"
     inkscape:window-height="1018"
     inkscape:window-x="0"
     inkscape:window-y="0"
     inkscape:window-maximized="1"
     inkscape:current-layer="layer1" /><defs
     id="defs533" /><g
     inkscape:label="Layer 1"
     inkscape:groupmode="layer"
     id="layer1"><g
       id="g606"
       transform="matrix(0.26458333,0,0,0.26458333,3.9663718,0.06106679)"><path
         fill="#8899a6"
         d="m 15,9 6,-6 c 0,0 6,-6 12,0 6,6 0,12 0,12 l -8,8 c 0,0 -6,6 -12,0 -1.125,-1.125 -1.822,-2.62 -1.822,-2.62 l 3.353,-3.348 c 0,0 -0.135,1.364 1.469,2.968 0,0 3,3 6,0 l 8,-8 c 0,0 3,-3 0,-6 -3,-3 -6,0 -6,0 l -3.729,3.729 c 0,0 -1.854,-1.521 -5.646,-0.354 z"
         id="path594" /><path
         fill="#8899a6"
         d="m 20.845,27 -6,6 c 0,0 -6,6 -12,0 -6,-6 0,-12 0,-12 l 8,-8 c 0,0 6,-6 12,0 1.125,1.125 1.822,2.62 1.822,2.62 l -3.354,3.349 c 0,0 0.135,-1.365 -1.469,-2.969 0,0 -3,-3 -6,0 l -8,8 c 0,0 -3,3 0,6 3,3 6,0 6,0 l 3.729,-3.729 c 0,0 1.854,1.521 5.646,0.354 z"
         id="path596" /></g><g
       id="svg_1"
       transform="matrix(0.26458333,0,0,0.26458333,0.06336016,-0.01316294)"><title
         id="title790">Layer 1</title><g
         id="g794"><path
           fill="#00ff00"
           d="M 13.36719,16.59375 H 8.75781 v -4.6875 C 8.75781,11.12953 8.13877,10.5 7.375,10.5 c -0.76377,0 -1.38281,0.62953 -1.38281,1.40625 v 4.6875 H 1.38281 C 0.61904,16.59375 0,17.22328 0,18 c 0,0.77672 0.61904,1.40625 1.38281,1.40625 h 4.60938 v 4.6875 c 0,0.77672 0.61904,1.40625 1.38281,1.40625 0.76377,0 1.38281,-0.62953 1.38281,-1.40625 v -4.6875 h 4.60938 c 0.76377,0 1.38281,-0.62953 1.38281,-1.40625 0,-0.77672 -0.61904,-1.40625 -1.38281,-1.40625 z"
           id="path792" /></g></g></g></svg>
