<svg width="51" height="36" xmlns="http://www.w3.org/2000/svg">
 <g id="Layer_1">
  <title>Layer 1</title>
  <g>
   <g id="svg_1">
    <title>Layer 1</title>
    <g>
     <path fill="#00FF00" d="m13.36719,16.59375l-4.60938,0l0,-4.6875c0,-0.77672 -0.61904,-1.40625 -1.38281,-1.40625s-1.38281,0.62953 -1.38281,1.40625l0,4.6875l-4.60938,0c-0.76377,0 -1.38281,0.62953 -1.38281,1.40625s0.61904,1.40625 1.38281,1.40625l4.60938,0l0,4.6875c0,0.77672 0.61904,1.40625 1.38281,1.40625s1.38281,-0.62953 1.38281,-1.40625l0,-4.6875l4.60938,0c0.76377,0 1.38281,-0.62953 1.38281,-1.40625s-0.61904,-1.40625 -1.38281,-1.40625z"/>
    </g>
   </g>
  </g>
  <g>
   <path d="m46.5285,32c0,2.209 -1.791,4 -4,4l-22,0c-2.209,0 -4,-1.791 -4,-4l0,-28c0,-2.209 1.791,-4 4,-4l22,0c2.209,0 4,1.791 4,4l0,28z" fill="#CCD6DD"/>
   <path d="m42.5285,24c0,0.553 -0.447,1 -1,1l-20,0c-0.552,0 -1,-0.447 -1,-1c0,-0.553 0.448,-1 1,-1l20,0c0.553,0 1,0.447 1,1zm-16,4c0,0.553 -0.448,1 -1,1l-4,0c-0.552,0 -1,-0.447 -1,-1c0,-0.553 0.448,-1 1,-1l4,0c0.552,0 1,0.447 1,1zm16,-20c0,0.552 -0.447,1 -1,1l-20,0c-0.552,0 -1,-0.448 -1,-1s0.448,-1 1,-1l20,0c0.553,0 1,0.448 1,1zm0,4c0,0.553 -0.447,1 -1,1l-20,0c-0.552,0 -1,-0.447 -1,-1c0,-0.553 0.448,-1 1,-1l20,0c0.553,0 1,0.447 1,1zm0,4c0,0.553 -0.447,1 -1,1l-20,0c-0.552,0 -1,-0.447 -1,-1c0,-0.553 0.448,-1 1,-1l20,0c0.553,0 1,0.447 1,1zm0,4c0,0.553 -0.447,1 -1,1l-20,0c-0.552,0 -1,-0.447 -1,-1c0,-0.553 0.448,-1 1,-1l20,0c0.553,0 1,0.447 1,1z" fill="#99AAB5"/>
   <path d="m46.5285,6.272c-0.827,-0.535 -1.837,-0.579 -2.521,-0.023l-0.792,0.646l-1.484,1.211l-0.1,0.08l-2.376,1.938l-11.878,9.686c-0.437,0.357 -0.793,1.219 -1.173,2.074c-0.378,0.85 -0.969,2.852 -1.443,4.391c-0.148,0.25 -1.065,1.846 -0.551,2.453c0.52,0.615 2.326,0.01 2.568,-0.076c1.626,-0.174 3.731,-0.373 4.648,-0.58c0.924,-0.211 1.854,-0.395 2.291,-0.752c0.008,-0.006 0.01,-0.018 0.017,-0.023l11.858,-9.666l0.792,-0.646l0.144,-0.118l0,-10.595z" fill="#66757F"/>
   <path d="m33.6735,22.526s-1.274,-1.881 -2.117,-2.553c-0.672,-0.843 -2.549,-2.116 -2.549,-2.116c-0.448,-0.446 -1.191,-0.48 -1.629,-0.043c-0.437,0.438 -0.793,1.366 -1.173,2.291c-0.472,1.146 -1.276,4.154 -1.768,5.752c-0.083,0.272 0.517,-0.45 0.503,-0.21c-0.01,0.187 0.027,0.394 0.074,0.581l-0.146,0.159l0.208,0.067c0.025,0.082 0.05,0.154 0.068,0.21l0.159,-0.146c0.187,0.047 0.394,0.084 0.58,0.074c0.24,-0.014 -0.483,0.587 -0.21,0.503c1.598,-0.493 4.607,-1.296 5.752,-1.768c0.924,-0.381 1.854,-0.736 2.291,-1.174c0.439,-0.435 0.406,-1.178 -0.043,-1.627z" fill="#D99E82"/>
   <path d="m40.8405,4.351c-0.876,0.875 -0.876,2.293 0,3.168l3.167,3.168c0.876,0.874 2.294,0.874 3.168,0l3.169,-3.168c0.874,-0.875 0.874,-2.293 0,-3.168l-3.169,-3.168c-0.874,-0.875 -2.292,-0.875 -3.168,0l-3.167,3.168z" fill="#EA596E"/>
   <path d="m27.3775,17.815l3.17,3.17l3.165,3.166l11.881,-11.879l-6.337,-6.336l-11.879,11.879z" fill="#FFCC4D"/>
   <path d="m26.8265,26.742s-2.06,1.133 -2.616,0.576c-0.557,-0.558 0.581,-2.611 0.581,-2.611s1.951,0.036 2.035,2.035z" fill="#292F33"/>
   <path d="m39.2565,5.935l3.96,-3.96l6.336,6.337l-3.96,3.96l-6.336,-6.337z" fill="#CCD6DD"/>
   <path d="m41.6315,3.558l0.792,-0.792l6.336,6.335l-0.792,0.792l-6.336,-6.335zm-1.583,1.584l0.791,-0.791l6.336,6.335l-0.792,0.792l-6.335,-6.336z" fill="#99AAB5"/>
  </g>
 </g>

</svg>