<svg width="51" height="36" xmlns="http://www.w3.org/2000/svg">
 <g id="Layer_1">
  <title>Layer 1</title>
  <g>
   <g id="svg_1">
    <title>Layer 1</title>
    <g>
     <path fill="#00FF00" d="m13.36719,16.59375l-4.60938,0l0,-4.6875c0,-0.77672 -0.61904,-1.40625 -1.38281,-1.40625s-1.38281,0.62953 -1.38281,1.40625l0,4.6875l-4.60938,0c-0.76377,0 -1.38281,0.62953 -1.38281,1.40625s0.61904,1.40625 1.38281,1.40625l4.60938,0l0,4.6875c0,0.77672 0.61904,1.40625 1.38281,1.40625s1.38281,-0.62953 1.38281,-1.40625l0,-4.6875l4.60938,0c0.76377,0 1.38281,-0.62953 1.38281,-1.40625s-0.61904,-1.40625 -1.38281,-1.40625z"/>
    </g>
   </g>
  </g>
  <g>
   <path d="m47.77263,3.36387c-4.304,-4.304 -11.282,-4.304 -15.587,0c-3.391,3.392 -4.098,8.439 -2.144,12.535l-3.916,3.915c-0.64,0.641 -0.841,1.543 -0.625,2.359l-1.973,1.972c-0.479,-0.48 -1.252,-0.48 -1.731,0l-1.731,1.732c-0.479,0.479 -0.479,1.253 0,1.732l-0.867,0.864c-0.479,-0.478 -1.253,-0.478 -1.731,0l-0.866,0.867c-0.479,0.479 -0.479,1.253 0,1.732c0.015,0.016 0.036,0.02 0.051,0.033c-0.794,1.189 -0.668,2.812 0.382,3.863c1.195,1.195 3.134,1.195 4.329,0l13.875,-13.874c4.097,1.955 9.144,1.247 12.535,-2.146c4.302,-4.302 4.302,-11.28 -0.001,-15.584zm-1.731,5.195c-0.957,0.956 -2.509,0.956 -3.464,0c-0.956,-0.956 -0.956,-2.507 0,-3.464c0.955,-0.956 2.507,-0.956 3.464,0c0.956,0.957 0.956,2.508 0,3.464z" fill="#C1694F"/>
  </g>
 </g>

</svg>