<svg width="36" height="36" xmlns="http://www.w3.org/2000/svg">
   <path fill="#000000" d="m18,6.25c-3.77188,0 -7.16523,1.64023 -9.50273,4.25l3.12773,0c1.17539,0 2.125,0.94961 2.125,2.125s-0.94961,2.125 -2.125,2.125l-8.5,0c-1.17539,0 -2.125,-0.94961 -2.125,-2.125l0,-8.5c0,-1.17539 0.94961,-2.125 2.125,-2.125s2.125,0.94961 2.125,2.125l0,3.63242c3.11445,-3.52617 7.66992,-5.75742 12.75,-5.75742c9.38984,0 17,7.61016 17,17s-7.61016,17 -17,17c-5.77734,0 -10.88399,-2.88203 -13.95195,-7.28477c-0.6707,-0.96289 -0.43828,-2.28437 0.52461,-2.96172s2.28438,-0.43828 2.96172,0.52461c2.31094,3.30703 6.13594,5.46523 10.46563,5.46523c7.03906,0 12.75,-5.71094 12.75,-12.75s-5.71094,-12.74336 -12.75,-12.74336z"/>


</svg>
